#!OML:ASF X:\für Bonn\!DataBase\2005_08_11_Bastian_Final\c3d\Bastian.ASF
:FULLY-SPECIFIED
:DEGREES
80
root -2.56938 17.1209 2.69605 144.701 -6.26951 -166.647
lowerback 39.0002 -3.75956 7.04233
upperback 12.4311 -7.72483 8.04917
thorax -4.41753 -6.53199 7.93096
lowerneck -8.12115 -4.00061 -6.25872
upperneck -7.25368 -4.17138 5.39843
head -0.639951 -1.71433 2.71438
rclavicle -8.74653e-015 6.59965e-014
rhumerus -39.2919 36.3884 -94.5035
rradius 38.3987
rwrist -34.2464
rhand -35.845 4.34837
rfingers 7.12502
rthumb -8.96025 -25.4414
lclavicle -8.74653e-015 6.59965e-014
lhumerus 41.005 -24.6274 73.9713
lradius 93.6374
lwrist -8.00832
lhand -59.1325 -1.4485
lfingers 7.12502
lthumb -31.3257 25.8904
rfemur -74.627 -12.3063 36.8116
rtibia 127.724
rfoot -2.42699 -2.08331
rtoes -6.57595
lfemur 24.2168 -5.42283 -11.108
ltibia 28.2069
lfoot -12.1958 -0.812167
ltoes 0.0343777
81
root -2.57933 17.1377 2.70642 145.337 -5.94285 -166.72
lowerback 38.2374 -3.68197 7.18271
upperback 12.3404 -7.49795 8.00971
thorax -4.31105 -6.34689 7.66398
lowerneck -7.97716 -4.03145 -6.22642
upperneck -7.25207 -4.23022 5.41521
head -0.660505 -1.74949 2.71492
rclavicle 4.29375e-014 -1.82882e-014
rhumerus -38.7185 36.1295 -94.003
rradius 38.3739
rwrist -33.895
rhand -35.8917 4.44273
rfingers 7.12502
rthumb -9.00535 -25.3451
lclavicle 4.29375e-014 -1.82882e-014
lhumerus 40.7153 -24.9329 73.7987
lradius 92.7576
lwrist -7.41513
lhand -59.0301 -1.75272
lfingers 7.12502
lthumb -31.2281 25.605
rfemur -72.0992 -12.3373 36.3225
rtibia 126.435
rfoot -2.02481 -2.34599
rtoes -6.7399
lfemur 23.6952 -5.30755 -11.1471
ltibia 28.0813
lfoot -12.159 -0.459279
ltoes 0.223402
82
root -2.58849 17.1511 2.71458 145.971 -5.68121 -166.825
lowerback 37.3612 -3.59033 7.22052
upperback 12.3372 -7.30211 7.9943
thorax -4.20074 -6.17219 7.44221
lowerneck -7.78589 -4.06049 -6.25032
upperneck -7.26919 -4.28515 5.45646
head -0.69345 -1.78234 2.73544
rclavicle -7.35503e-014 -3.10104e-014
rhumerus -38.219 35.9551 -93.5444
rradius 38.3749
rwrist -33.583
rhand -35.9992 4.56299
rfingers 7.12502
rthumb -9.10907 -25.2203
lclavicle -7.35503e-014 -3.10104e-014
lhumerus 40.4183 -25.2939 73.6129
lradius 91.8432
lwrist -6.68587
lhand -58.9527 -2.10905
lfingers 7.12502
lthumb -31.1542 25.2629
rfemur -69.5555 -12.3402 35.7422
rtibia 125.05
rfoot -1.53742 -2.58082
rtoes -6.63989
lfemur 23.1573 -5.21247 -11.2406
ltibia 27.9797
lfoot -12.1435 -0.144546
ltoes 0.420068
83
root -2.59677 17.1669 2.72084 146.583 -5.38575 -166.917
lowerback 36.5536 -3.50341 7.30953
upperback 12.2512 -7.09075 7.95421
thorax -4.05961 -5.99578 7.20257
lowerneck -7.58922 -4.0905 -6.25722
upperneck -7.26396 -4.3459 5.48698
head -0.720462 -1.81962 2.74899
rclavicle 6.67916e-014 -5.00937e-014
rhumerus -37.711 35.6775 -93.0803
rradius 38.3736
rwrist -33.1946
rhand -36.1108 4.62335
rfingers 7.12502
rthumb -9.21675 -25.1552
lclavicle 6.67916e-014 -5.00937e-014
lhumerus 40.0851 -25.7316 73.3867
lradius 90.9631
lwrist -5.90718
lhand -58.8741 -2.32744
lfingers 7.12502
lthumb -31.0794 25.0589
rfemur -66.9431 -12.1963 35.1787
rtibia 123.524
rfoot -0.981003 -2.93707
rtoes -6.54429
lfemur 22.6668 -5.12438 -11.3184
ltibia 27.8575
lfoot -12.1251 0.206355
ltoes 0.591475
84
root -2.60474 17.1846 2.72526 147.232 -5.13198 -166.994
lowerback 35.6429 -3.43822 7.41023
upperback 12.1614 -6.90308 7.89714
thorax -3.88067 -5.82327 6.93814
lowerneck -7.26082 -4.11348 -6.23844
upperneck -7.34329 -4.40419 5.52132
head -0.797631 -1.85756 2.76318
rclavicle -1.17283e-014 -7.31528e-014
rhumerus -37.2491 35.4026 -92.6759
rradius 38.3855
rwrist -32.835
rhand -36.2239 4.6795
rfingers 7.12502
rthumb -9.32582 -25.0942
lclavicle -1.17283e-014 -7.31528e-014
lhumerus 39.7264 -26.2566 73.1293
lradius 90.0804
lwrist -5.04629
lhand -58.7889 -2.56863
lfingers 7.12502
lthumb -30.9981 24.8332
rfemur -64.3631 -11.9841 34.6184
rtibia 121.872
rfoot -0.12934 -3.42685
rtoes -5.97692
lfemur 22.1339 -5.04359 -11.3762
ltibia 27.7187
lfoot -12.0998 0.506943
ltoes 0.75903
85
root -2.61157 17.2039 2.72713 147.866 -4.88182 -167.085
lowerback 34.6784 -3.36031 7.49903
upperback 12.0879 -6.71416 7.82792
thorax -3.65673 -5.64994 6.66114
lowerneck -6.85051 -4.13957 -6.24421
upperneck -7.46536 -4.4682 5.58366
head -0.900992 -1.89901 2.79405
rclavicle 4.01545e-014 -2.46493e-014
rhumerus -36.8159 35.13 -92.3144
rradius 38.3996
rwrist -32.4756
rhand -36.395 4.68937
rfingers 7.12502
rthumb -9.49098 -25.0769
lclavicle 4.01545e-014 -2.46493e-014
lhumerus 39.3334 -26.8509 72.8673
lradius 89.1821
lwrist -4.22904
lhand -58.6207 -2.7312
lfingers 7.12502
lthumb -30.8378 24.7011
rfemur -61.7867 -11.6712 34.0615
rtibia 120.088
rfoot 0.634297 -4.00093
rtoes -6.69603
lfemur 21.6351 -4.96306 -11.446
ltibia 27.5633
lfoot -12.0676 0.802921
ltoes 1.12696
86
root -2.61844 17.2225 2.72637 148.523 -4.63218 -167.2
lowerback 33.6801 -3.27051 7.55723
upperback 12.005 -6.52166 7.76916
thorax -3.41947 -5.47454 6.41011
lowerneck -6.45134 -4.17202 -6.27102
upperneck -7.56824 -4.54136 5.62174
head -0.996123 -1.94485 2.82055
rclavicle 5.42682e-014 -1.03368e-014
rhumerus -36.3695 34.8505 -91.9203
rradius 38.4001
rwrist -32.1782
rhand -36.5595 4.78006
rfingers 7.12502
rthumb -9.64965 -24.9789
lclavicle 5.42682e-014 -1.03368e-014
lhumerus 38.8771 -27.4652 72.6318
lradius 88.2857
lwrist -3.46921
lhand -58.4373 -2.70312
lfingers 7.12502
lthumb -30.6629 24.762
rfemur -59.206 -11.2149 33.5057
rtibia 118.152
rfoot 1.43586 -4.60897
rtoes -7.80552
lfemur 21.1016 -4.82586 -11.5145
ltibia 27.4378
lfoot -12.055 1.06611
ltoes 0.973582
87
root -2.62511 17.2356 2.72349 149.182 -4.37097 -167.307
lowerback 32.7013 -3.19164 7.63553
upperback 11.897 -6.32961 7.69968
thorax -3.20789 -5.29626 6.14495
lowerneck -6.07968 -4.19426 -6.31654
upperneck -7.62016 -4.60057 5.69463
head -1.06996 -1.98451 2.86174
rclavicle -9.93923e-016 -7.07673e-014
rhumerus -35.9663 34.5644 -91.587
rradius 38.3744
rwrist -31.8348
rhand -36.7168 4.87031
rfingers 7.12502
rthumb -9.80144 -24.8816
lclavicle -9.93923e-016 -7.07673e-014
lhumerus 38.2957 -28.1037 72.4373
lradius 87.35
lwrist -2.86988
lhand -58.2423 -2.62544
lfingers 7.12502
lthumb -30.477 24.8744
rfemur -56.6019 -10.6284 32.9825
rtibia 116.054
rfoot 2.26304 -5.2139
rtoes -9.30196
lfemur 20.8057 -4.74669 -11.6059
ltibia 26.8255
lfoot -11.8098 1.41902
ltoes 1.24313
88
root -2.63038 17.2457 2.7162 149.822 -4.10243 -167.423
lowerback 31.7008 -3.09692 7.69155
upperback 11.796 -6.13298 7.63291
thorax -2.96935 -5.11806 5.89285
lowerneck -5.75425 -4.21463 -6.33178
upperneck -7.64198 -4.65868 5.7209
head -1.12825 -2.0236 2.8804
rclavicle 1.06151e-013 -1.90833e-014
rhumerus -35.6032 34.2505 -91.2814
rradius 38.3773
rwrist -31.5586
rhand -36.9018 5.02956
rfingers 7.12502
rthumb -9.97989 -24.7138
lclavicle 1.06151e-013 -1.90833e-014
lhumerus 37.6405 -28.7493 72.3182
lradius 86.335
lwrist -2.46722
lhand -57.937 -2.48576
lfingers 7.12502
lthumb -30.1858 25.0677
rfemur -53.9306 -9.9318 32.469
rtibia 113.874
rfoot 3.01698 -5.82237
rtoes -10.9332
lfemur 20.5258 -4.62518 -11.6741
ltibia 26.2495
lfoot -11.5844 1.72969
ltoes 1.57719
